<svg width="512" height="512" viewBox="0 0 512 512" fill="none" xmlns="http://www.w3.org/2000/svg">
<g clip-path="url(#clip0_0_3)">
<path d="M502.6 70.63L441.35 9.38C435.4 3.371 427.2 0 418.7 0H255.1C219.75 0 191.1 28.66 191.1 64L191.119 320C192 355.4 220.7 384 256 384H448C483.2 384 512 355.2 512 320V93.25C512 84.77 508.6 76.63 502.6 70.63ZM464 320C464 328.836 456.836 336 448 336H255.1C246.262 336 239.1 328.836 239.1 320V64.13C239.1 55.294 246.264 48.13 255.1 48.13H383.1L384 96C384 113.67 398.33 128 416 128H463.1V320H464ZM272 448C272 456.836 264.836 464 256 464H63.1C54.262 464 47.1 456.836 47.1 448L47.98 192.1C47.98 183.264 55.144 176.1 63.98 176.1H160V128H63.99C28.64 128 -0.0100098 156.65 -0.0100098 192L-0.000209766 448C0.00199023 483.3 28.66 512 64 512H256C291.2 512 320 483.2 320 448V416H272.9L272 448Z" fill="white"/>
</g>
<defs>
<clipPath id="clip0_0_3">
<rect width="512" height="512" fill="white"/>
</clipPath>
</defs>
</svg>
