<svg width="512" height="512" viewBox="0 0 512 512" fill="none" xmlns="http://www.w3.org/2000/svg">
<g clip-path="url(#clip0_0_3)">
<path d="M360 144H152C138.8 144 128 154.8 128 168C128 181.2 138.8 192 152 192H360C373.3 192 384 181.3 384 168C384 154.7 373.3 144 360 144ZM264 240H152C138.8 240 128 250.8 128 264C128 277.2 138.8 288 152 288H264C277.3 288 288 277.3 288 264C288 250.7 277.3 240 264 240ZM447.1 0H63.1C27.85 0 -0.899994 28.75 -0.899994 63.1V350.2C-0.899994 385.45 27.85 413.3 63.1 413.3H159.1V496.4C159.1 506.236 170.12 511.95 178.22 506.1L303.12 412.4H447.12C482.37 412.4 511.12 383.65 511.12 349.3V63.1C511.1 28.75 483.2 0 447.1 0ZM464 352C464 360.75 456.75 368 448 368H288L208 428V368H64C55.25 368 48 360.75 48 352V64C48 55.25 55.25 48 64 48H448C456.75 48 464 55.25 464 64V352Z" fill="white"/>
</g>
<defs>
<clipPath id="clip0_0_3">
<rect width="512" height="512" fill="white"/>
</clipPath>
</defs>
</svg>
